<?xml version="1.0" encoding="UTF-8"?>
<!-- Generator: visioncortex VTracer 0.6.4 -->
<svg version="1.1" xmlns="http://www.w3.org/2000/svg" width="180" height="180">
<path d="M0 0 C2.11 0 4.21 -0.02 6.32 -0.05 C17.73 -0.1 27.95 1.82 38.37 6.57 C39.05 6.87 39.73 7.18 40.42 7.49 C61.98 17.43 76.69 33.91 86.31 55.32 C86.96 56.77 86.96 56.77 87.62 58.25 C91.79 68.12 92.66 77.39 92.62 88.01 C92.62 90.11 92.64 92.22 92.67 94.33 C92.72 105.74 90.8 115.96 86.06 126.38 C85.75 127.06 85.45 127.73 85.13 128.43 C75.19 149.98 58.72 164.7 37.31 174.32 C35.86 174.97 35.86 174.97 34.38 175.63 C24.51 179.8 15.24 180.66 4.62 180.63 C2.51 180.63 0.4 180.65 -1.7 180.68 C-13.11 180.73 -23.33 178.81 -33.75 174.07 C-34.43 173.76 -35.11 173.46 -35.81 173.14 C-57.36 163.2 -72.07 146.72 -81.69 125.32 C-82.13 124.35 -82.56 123.38 -83.01 122.39 C-87.17 112.52 -88.04 103.25 -88.01 92.62 C-88 90.52 -88.03 88.41 -88.05 86.31 C-88.11 74.89 -86.18 64.67 -81.44 54.25 C-81.14 53.58 -80.83 52.9 -80.52 52.2 C-70.57 30.65 -54.1 15.93 -32.69 6.32 C-31.72 5.88 -30.76 5.45 -29.76 5 C-19.89 0.83 -10.62 -0.03 0 0 Z " fill="#010101" transform="translate(87.691650390625,-0.315673828125)"/>
<path d="M0 0 C4.62 0 9.24 0 14 0 C14 4.29 14 8.58 14 13 C17.96 13 21.92 13 26 13 C26 16.96 26 20.92 26 25 C30.29 25 34.58 25 39 25 C39 36.88 39 48.76 39 61 C42.3 61 45.6 61 49 61 C49 40.87 49 20.74 49 0 C53.62 0 58.24 0 63 0 C63 29.04 63 58.08 63 88 C58.38 88 53.76 88 49 88 C49 83.71 49 79.42 49 75 C45.04 75 41.08 75 37 75 C37 71.04 37 67.08 37 63 C33.04 63 29.08 63 25 63 C25 50.79 25 38.58 25 26 C21.37 26 17.74 26 14 26 C14 46.46 14 66.92 14 88 C9.38 88 4.76 88 0 88 C0 58.96 0 29.92 0 0 Z " fill="#F6F6F6" transform="translate(98,46)"/>
<path d="M0 0 C12.21 0 24.42 0 37 0 C37 3.96 37 7.92 37 12 C41.29 12 45.58 12 50 12 C50 16.29 50 20.58 50 25 C45.38 25 40.76 25 36 25 C36 21.04 36 17.08 36 13 C24.12 13 12.24 13 0 13 C0 20.59 0 28.18 0 36 C12.54 36 25.08 36 38 36 C38 39.96 38 43.92 38 48 C41.96 48 45.92 48 50 48 C50 56.91 50 65.82 50 75 C46.04 75 42.08 75 38 75 C38 78.96 38 82.92 38 87 C25.13 87 12.26 87 -1 87 C-1 83.04 -1 79.08 -1 75 C-4.96 75 -8.92 75 -13 75 C-13 70.38 -13 65.76 -13 61 C-8.71 61 -4.42 61 0 61 C0 64.96 0 68.92 0 73 C11.88 73 23.76 73 36 73 C36 65.41 36 57.82 36 50 C23.79 50 11.58 50 -1 50 C-1 46.04 -1 42.08 -1 38 C-4.96 38 -8.92 38 -13 38 C-13 29.42 -13 20.84 -13 12 C-8.71 12 -4.42 12 0 12 C0 8.04 0 4.08 0 0 Z " fill="#FDFDFD" transform="translate(32,47)"/>
<path d="M0 0 C12.21 0 24.42 0 37 0 C37 3.96 37 7.92 37 12 C41.29 12 45.58 12 50 12 C50 16.29 50 20.58 50 25 C45.38 25 40.76 25 36 25 C36 21.04 36 17.08 36 13 C24.12 13 12.24 13 0 13 C0 20.59 0 28.18 0 36 C12.54 36 25.08 36 38 36 C38 39.96 38 43.92 38 48 C41.96 48 45.92 48 50 48 C50 56.91 50 65.82 50 75 C46.04 75 42.08 75 38 75 C38 78.96 38 82.92 38 87 C25.13 87 12.26 87 -1 87 C-1 83.04 -1 79.08 -1 75 C-4.96 75 -8.92 75 -13 75 C-13 74.67 -13 74.34 -13 74 C-8.71 74 -4.42 74 0 74 C0 77.96 0 81.92 0 86 C12.21 86 24.42 86 37 86 C37 82.04 37 78.08 37 74 C40.96 74 44.92 74 49 74 C49 65.75 49 57.5 49 49 C45.04 49 41.08 49 37 49 C37 45.04 37 41.08 37 37 C25.12 37.33 13.24 37.66 1 38 C0.67 41.63 0.34 45.26 0 49 C11.88 49 23.76 49 36 49 C36 49.33 36 49.66 36 50 C23.79 50 11.58 50 -1 50 C-1 46.04 -1 42.08 -1 38 C-4.96 38 -8.92 38 -13 38 C-13 29.42 -13 20.84 -13 12 C-8.71 12 -4.42 12 0 12 C0 8.04 0 4.08 0 0 Z " fill="#E7E7E7" transform="translate(32,47)"/>
</svg>
